<svg width="18" height="17" viewBox="0 0 18 17" fill="none" xmlns="http://www.w3.org/2000/svg">
<path d="M1.45207 16.8607C4.60659 13.9888 7.81647 11.1445 10.888 8.18981C12.2992 6.8367 13.6551 5.45599 14.928 3.96481C15.6198 3.16399 17.363 1.58997 17.3907 0.485399C17.3907 0.347328 17.3077 0.181645 17.197 0.126416C17.1417 0.0988018 17.0863 0.071184 17.0587 0.071184C16.8926 -0.0116591 16.6713 -0.0116557 16.5606 0.126416C16.5329 0.15403 16.5052 0.181643 16.4776 0.236872C16.1455 0.651087 16.7266 1.23099 17.0587 0.816775C17.0863 0.789161 17.114 0.76154 17.1417 0.706311C16.9756 0.733925 16.8096 0.761543 16.6436 0.761543C16.5882 0.513014 16.5052 0.513016 16.3945 0.789159C16.2562 0.98246 16.1178 1.17576 15.9518 1.36906C15.6198 1.78328 15.3154 2.19749 14.9556 2.61171C14.4022 3.30207 13.7934 3.96481 13.2123 4.62755C11.9948 5.95304 10.7219 7.19569 9.4214 8.41072C6.59893 11.0617 3.72112 13.6298 0.870979 16.2532C0.45591 16.6398 1.06467 17.2197 1.45207 16.8607Z" fill="black"/>
</svg>
